#!OML:ASF I:\Random Stuff\random\construction\7_22_03\Session 2\subj1.ASF
:FULLY-SPECIFIED
:DEGREES
553
root 4.04055 17.7458 -9.4341 18.1308 -25.9491 -2.90645
lowerback 11.7589 0.722025 6.49468
upperback 6.21394 1.50453 -1.06375
thorax 0.146641 0.890172 -4.94097
lowerneck -19.9383 3.40947 -1.89318
upperneck 39.1093 9.61502 -9.07058
head 18.7289 2.12751 -1.9384
rclavicle -3.96327e-014 2.11333e-014
rhumerus 37.1639 47.1789 -16.4605
rradius 74.6954
rwrist 2.83911
rhand -22.1954 34.9911
rfingers 7.12502
rthumb 4.22005 5.05312
lclavicle -3.96327e-014 2.11333e-014
lhumerus 7.63562 -70.0106 80.8156
lradius 79.576
lwrist -13.1198
lhand -25.587 39.315
lfingers 7.12502
lthumb 0.944629 429.293
rfemur -26.3324 1.86901 19.38
rtibia 14.8831
rfoot -3.56701 -7.68694
rtoes -10.2284
lfemur -22.4622 -16.9276 -3.62148
ltibia 18.1343
lfoot -13.2178 23.0469
ltoes -30.743
554
root 4.04434 17.7493 -9.43401 18.152 -26.1194 -2.87482
lowerback 11.7775 0.715809 6.70712
upperback 6.17245 1.51835 -1.21218
thorax 0.108538 0.902386 -5.22086
lowerneck -19.8964 3.48033 -1.77377
upperneck 39.1603 9.65102 -9.00812
head 18.7493 2.16688 -1.92499
rclavicle 4.21734e-014 -7.0817e-015
rhumerus 36.9763 47.3593 -16.9416
rradius 74.5407
rwrist 1.97384
rhand -22.1622 34.6736
rfingers 7.12502
rthumb 4.25212 4.7363
lclavicle 4.21734e-014 -7.0817e-015
lhumerus 7.68532 -70.1401 80.4449
lradius 79.7049
lwrist -13.0644
lhand -25.7432 39.4202
lfingers 7.12502
lthumb 0.793779 429.398
rfemur -26.3365 2.72069 19.043
rtibia 14.8124
rfoot -3.43695 -8.35605
rtoes -10.2693
lfemur -22.3843 -16.9134 -3.68884
ltibia 18.0226
lfoot -13.1312 23.1728
ltoes -30.7548
555
root 4.04936 17.7539 -9.43273 18.1771 -26.2695 -2.865
lowerback 11.8198 0.7159 6.68236
upperback 6.13552 1.52046 -1.1765
thorax 0.0446327 0.898821 -5.17111
lowerneck -19.7934 3.57393 -1.77532
upperneck 39.0346 9.78326 -9.04118
head 18.6584 2.22298 -1.90678
rclavicle 9.82276e-015 1.69697e-014
rhumerus 36.9488 47.6865 -16.8723
rradius 74.7473
rwrist 0.876148
rhand -22.2606 33.6562
rfingers 7.12502
rthumb 4.15713 3.71702
lclavicle 9.82276e-015 1.69697e-014
lhumerus 7.73945 -69.8836 80.4252
lradius 79.6816
lwrist -13.6566
lhand -24.8791 39.4016
lfingers 7.12502
lthumb 1.62834 429.375
rfemur -26.3661 2.8797 18.9588
rtibia 14.7324
rfoot -3.43769 -8.39341
rtoes -9.79149
lfemur -22.3192 -16.9813 -3.71992
ltibia 17.9299
lfoot -13.2495 23.3614
ltoes -30.4193
556
root 4.05483 17.7571 -9.43122 18.2002 -26.3722 -2.87902
lowerback 11.882 0.725608 6.79328
upperback 6.08224 1.55032 -1.19814
thorax -0.0357851 0.912273 -5.26285
lowerneck -19.7515 3.5495 -1.69925
upperneck 39.0356 9.68412 -8.9812
head 18.6365 2.20526 -1.91334
rclavicle 8.96022e-014 1.61513e-015
rhumerus 36.5033 48.1012 -17.0238
rradius 75.2058
rwrist -0.304906
rhand -22.5281 32.3325
rfingers 7.12502
rthumb 3.8988 2.38846
lclavicle 8.96022e-014 1.61513e-015
lhumerus 7.6829 -70.0869 80.398
lradius 79.6628
lwrist -12.9862
lhand -26.0393 39.8054
lfingers 7.12502
lthumb 0.507808 429.785
rfemur -26.4208 1.99162 19.2514
rtibia 14.6761
rfoot -3.56192 -7.38509
rtoes -9.40556
lfemur -22.2796 -17.1347 -3.70073
ltibia 17.8708
lfoot -13.2952 23.5733
ltoes -30.1915
557
root 4.05956 17.7557 -9.42987 18.1628 -26.4519 -2.86919
lowerback 11.9976 0.720873 6.94286
upperback 6.04296 1.56796 -1.24804
thorax -0.129205 0.920586 -5.40657
lowerneck -19.7837 3.47343 -1.63631
upperneck 39.1289 9.53507 -8.93625
head 18.6884 2.15691 -1.93957
rclavicle -4.60621e-015 1.66172e-015
rhumerus 35.9299 48.5511 -17.1937
rradius 75.7969
rwrist -1.55667
rhand -22.9821 31.2891
rfingers 7.12502
rthumb 3.46042 1.33743
lclavicle -4.60621e-015 1.66172e-015
lhumerus 7.41087 -70.116 80.5525
lradius 79.7367
lwrist -12.9232
lhand -26.0368 39.6831
lfingers 7.12502
lthumb 0.510156 429.662
rfemur -26.3731 2.21922 19.1337
rtibia 14.6612
rfoot -3.60301 -7.50824
rtoes -9.08851
lfemur -22.2125 -17.3385 -3.70488
ltibia 17.8443
lfoot -13.2431 23.7799
ltoes -30.158
558
root 4.06441 17.7534 -9.4282 18.0697 -26.5639 -2.81996
lowerback 12.0962 0.684635 6.89387
upperback 6.07313 1.5207 -1.21176
thorax -0.16073 0.894519 -5.33738
lowerneck -19.8174 3.54277 -1.71447
upperneck 39.085 9.67897 -8.96087
head 18.6809 2.19813 -1.90413
rclavicle -7.08232e-014 5.90142e-015
rhumerus 35.6921 48.9406 -17.2143
rradius 76.0414
rwrist -2.96729
rhand -23.2189 30.4375
rfingers 7.12502
rthumb 3.23171 0.482254
lclavicle -7.08232e-014 5.90142e-015
lhumerus 7.26227 -69.9062 80.7241
lradius 79.7436
lwrist -12.8465
lhand -26.149 39.6402
lfingers 7.12502
lthumb 0.401819 429.62
rfemur -26.3272 2.0731 19.1054
rtibia 14.6824
rfoot -3.6691 -7.236
rtoes -9.18211
lfemur -22.1032 -17.4855 -3.79024
ltibia 17.8494
lfoot -13.3755 23.9635
ltoes -29.6266
